<?xml version="1.0" standalone="no"?>
<!DOCTYPE svg PUBLIC "-//W3C//DTD SVG 20010904//EN"
 "http://www.w3.org/TR/2001/REC-SVG-20010904/DTD/svg10.dtd">
<svg version="1.0" xmlns="http://www.w3.org/2000/svg"
 width="151.000000pt" height="334.000000pt" viewBox="0 0 151.000000 334.000000"
 preserveAspectRatio="xMidYMid meet">

<g transform="translate(0.000000,334.000000) scale(0.100000,-0.100000)"
fill="#000000" stroke="none">
<path d="M283 3320 c-56 -34 -65 -65 -61 -217 l3 -135 37 -34 c21 -19 47 -34
58 -34 11 0 20 -2 20 -4 0 -2 -30 -65 -66 -140 -115 -239 -200 -531 -244 -836
-20 -139 -21 -179 -18 -910 l3 -765 26 -55 c36 -77 80 -124 147 -157 l57 -28
500 0 500 0 60 28 c70 33 107 65 142 124 53 90 53 89 53 903 0 708 -1 764 -20
894 -45 305 -143 596 -292 870 -21 38 -38 70 -38 72 0 2 14 4 30 4 21 0 42 11
68 34 l37 34 3 135 c4 152 -5 183 -61 217 -30 19 -53 20 -472 20 -419 0 -442
-1 -472 -20z m901 -86 c20 -20 23 -213 4 -232 -17 -17 -849 -17 -866 0 -19 19
-16 212 4 232 13 14 66 16 429 16 363 0 416 -2 429 -16z m-86 -439 c106 -190
216 -478 261 -686 32 -149 51 -330 51 -486 l0 -143 -656 0 -657 0 6 183 c12
397 114 784 305 1155 l32 62 307 -2 306 -3 45 -80z m-663 -1467 c15 -104 18
-107 29 -33 l11 70 63 3 62 3 0 -176 0 -175 -45 0 -45 0 -1 83 -1 82 -9 -60
c-14 -101 -16 -105 -48 -105 -29 0 -29 1 -44 93 l-15 92 -1 -92 -1 -93 -45 0
-45 0 0 168 c0 93 3 172 7 175 3 4 32 7 64 7 l57 0 7 -42z m305 -133 l0 -175
-50 0 -50 0 0 168 c0 93 3 172 7 175 3 4 26 7 50 7 l43 0 0 -175z m140 35 l0
-140 30 0 c28 0 30 -3 30 -35 l0 -35 -75 0 -75 0 0 175 0 175 45 0 45 0 0
-140z m191 83 l1 -58 20 58 20 57 45 0 c32 0 44 -4 40 -12 -2 -7 -14 -44 -27
-83 l-22 -70 30 -93 30 -93 -51 3 -52 3 -17 60 -16 60 -1 -62 -1 -63 -50 0
-50 0 0 175 0 175 50 0 50 0 1 -57z m337 -715 c-3 -305 -4 -314 -27 -366 -25
-56 -62 -92 -120 -120 -32 -15 -87 -17 -480 -20 -294 -2 -461 1 -495 8 -76 16
-119 50 -153 117 l-28 58 -3 318 -3 317 656 0 656 0 -3 -312z"/>
</g>
</svg>
